 <svg version="1.0" xmlns="http://www.w3.org/2000/svg" width="700.000000pt" height="700.000000pt" viewBox="0 0 700.000000 700.000000" preserveAspectRatio="xMidYMid meet">
<metadata>
Created by potrace 1.12, written by Peter Selinger 2001-2015
</metadata>
<g transform="translate(0.000000,700.000000) scale(0.100000,-0.100000)" fill="#000000" stroke="none">
<path d="M2206 6975 c-9 -37 -65 -60 -201 -84 -92 -16 -139 -30 -200 -61 -44
-22 -102 -44 -129 -50 -55 -12 -99 -33 -138 -65 -15 -13 -57 -33 -94 -45 -39
-13 -82 -37 -104 -56 -20 -18 -57 -42 -81 -52 -24 -11 -51 -27 -59 -37 -8 -10
-42 -36 -75 -57 -71 -46 -168 -124 -240 -193 -28 -27 -62 -60 -76 -72 -23 -21
-70 -73 -177 -195 -28 -31 -67 -83 -87 -115 -21 -32 -50 -71 -65 -88 -16 -16
-35 -47 -44 -67 -8 -21 -30 -58 -49 -83 -19 -24 -45 -71 -57 -102 -13 -32 -33
-71 -45 -88 -34 -47 -51 -85 -68 -151 -9 -34 -31 -91 -50 -126 -25 -48 -40
-97 -57 -189 -28 -149 -42 -185 -80 -207 l-30 -17 0 -512 c0 -419 2 -513 13
-513 18 0 53 -39 66 -72 6 -16 19 -80 30 -144 16 -90 28 -129 55 -177 19 -34
43 -98 55 -141 12 -49 33 -98 55 -130 19 -28 44 -77 56 -108 12 -32 37 -77 57
-100 20 -24 44 -63 55 -88 11 -25 30 -57 44 -71 14 -14 44 -53 67 -87 131
-191 361 -420 549 -549 33 -23 73 -53 87 -66 14 -14 49 -36 76 -50 28 -14 58
-34 68 -44 9 -11 38 -29 65 -41 98 -43 158 -73 189 -92 17 -12 63 -30 102 -40
39 -11 92 -33 118 -49 55 -33 98 -46 225 -67 50 -8 119 -26 154 -40 78 -31
138 -41 329 -53 162 -10 550 1 626 18 24 6 77 21 117 35 39 14 123 32 185 41
95 13 125 22 197 59 47 24 118 51 158 61 49 12 89 29 118 51 24 19 72 45 106
59 34 14 74 36 88 50 34 33 89 54 123 48 15 -3 53 -29 85 -57 31 -29 442 -437
912 -907 729 -729 866 -861 923 -893 52 -29 69 -45 79 -72 l12 -34 206 0 206
0 15 32 c8 18 29 42 47 53 96 58 137 98 197 196 20 32 33 42 68 53 15 5 17 24
17 214 l0 208 -34 12 c-26 10 -44 29 -77 85 -36 61 -169 199 -898 927 -470
470 -876 879 -903 909 -43 48 -48 59 -48 100 0 39 6 54 39 94 22 26 49 73 61
105 12 31 36 76 55 100 21 27 39 67 49 110 9 37 37 108 61 157 37 75 47 109
60 200 8 61 29 149 45 197 40 115 52 238 52 533 0 273 -16 422 -56 529 -14 37
-35 120 -45 183 -16 89 -28 129 -56 179 -19 36 -44 97 -55 137 -11 39 -35 97
-54 127 -19 31 -44 81 -56 112 -11 31 -36 76 -56 100 -19 23 -43 61 -53 84
-10 22 -32 56 -48 75 -16 18 -46 59 -65 89 -19 30 -43 61 -52 69 -10 8 -32 35
-49 60 -62 92 -313 325 -449 418 -33 23 -73 53 -87 66 -14 14 -53 38 -86 55
-33 16 -68 39 -79 50 -10 12 -53 35 -94 53 -42 17 -90 42 -107 54 -33 26 -87
48 -155 65 -25 6 -67 24 -95 39 -65 36 -104 48 -195 61 -130 18 -178 36 -202
75 l-20 35 -518 0 -518 0 -6 -25z m789 -820 c44 -8 130 -21 190 -30 89 -12
123 -22 180 -51 39 -20 99 -45 135 -55 36 -11 87 -34 115 -53 27 -19 75 -46
105 -59 31 -14 62 -33 70 -43 8 -9 40 -33 70 -52 58 -37 83 -59 223 -199 140
-140 162 -165 199 -223 19 -30 42 -61 52 -69 9 -8 33 -48 52 -90 19 -42 43
-85 54 -96 10 -11 30 -56 44 -100 14 -44 42 -111 61 -150 30 -60 39 -94 60
-240 14 -93 30 -201 36 -240 16 -110 4 -258 -53 -629 -6 -43 -23 -93 -45 -135
-20 -36 -46 -101 -58 -143 -12 -43 -34 -91 -49 -109 -15 -17 -40 -61 -56 -97
-17 -35 -45 -82 -64 -103 -19 -21 -42 -53 -52 -71 -9 -18 -34 -51 -56 -73
-257 -262 -285 -289 -326 -309 -18 -10 -50 -33 -71 -51 -21 -19 -65 -47 -97
-61 -33 -15 -76 -40 -97 -57 -21 -16 -77 -42 -125 -57 -48 -15 -112 -41 -143
-58 -34 -17 -85 -34 -125 -40 -38 -6 -130 -20 -204 -31 -163 -26 -379 -28
-525 -6 -55 9 -147 22 -205 30 -83 12 -122 23 -185 54 -44 22 -107 47 -140 56
-33 9 -80 32 -105 50 -25 19 -70 43 -100 55 -30 12 -68 34 -85 50 -16 15 -51
41 -77 58 -52 32 -76 54 -211 189 -139 139 -163 166 -181 202 -10 18 -35 52
-56 75 -20 22 -48 66 -61 96 -13 30 -38 74 -56 98 -18 23 -42 75 -54 115 -12
40 -36 102 -55 138 -29 56 -38 90 -59 235 -42 276 -47 334 -40 449 5 97 15
169 57 439 6 42 23 93 44 131 18 35 43 95 54 134 12 39 33 86 46 103 13 18 41
69 63 113 21 44 51 91 66 105 15 14 36 42 46 63 26 50 336 360 386 386 21 10
49 31 63 46 14 15 61 45 105 66 44 22 95 50 114 64 19 14 60 32 90 40 31 8 90
33 131 54 69 36 93 42 255 67 99 14 209 30 245 34 87 11 306 2 405 -15z"></path>
<path d="M2680 5887 c-54 -27 -76 -125 -41 -183 23 -38 110 -73 201 -81 36 -2
79 -9 95 -14 17 -5 77 -16 134 -24 84 -12 120 -23 180 -55 42 -22 102 -51 135
-65 32 -14 74 -38 92 -55 19 -16 49 -37 67 -46 55 -27 256 -227 287 -285 10
-19 34 -54 53 -77 19 -23 47 -73 61 -111 15 -38 36 -77 47 -87 11 -10 29 -33
40 -51 37 -59 103 -78 174 -49 43 18 55 42 55 111 0 63 -14 103 -58 164 -17
23 -38 64 -47 90 -8 27 -32 66 -51 87 -19 21 -44 55 -54 76 -21 38 -116 155
-163 197 -95 86 -147 129 -182 151 -22 13 -57 38 -78 56 -21 17 -59 40 -85 49
-26 10 -67 33 -92 51 -29 21 -80 42 -140 59 -52 14 -129 39 -171 55 -42 16
-113 34 -160 39 -114 15 -268 14 -299 -2z"></path>
<path d="M4165 4358 c-23 -20 -29 -35 -33 -80 -5 -65 7 -92 50 -114 39 -20
110 -14 146 13 52 39 51 138 -1 176 -15 12 -48 22 -80 25 -46 4 -57 1 -82 -20z"></path>
</g>
</svg>