 <svg version="1.0" xmlns="http://www.w3.org/2000/svg" width="700.000000pt" height="291.000000pt" viewBox="0 0 700.000000 291.000000" preserveAspectRatio="xMidYMid meet">
<metadata>
Created by potrace 1.12, written by Peter Selinger 2001-2015
</metadata>
<g transform="translate(0.000000,291.000000) scale(0.100000,-0.100000)" fill="#000000" stroke="none">
<path d="M847 2112 c-382 -383 -457 -462 -457 -485 0 -19 14 -43 45 -76 25
-26 45 -54 45 -61 0 -7 -20 -35 -45 -61 -31 -33 -45 -57 -45 -76 0 -23 76
-104 467 -495 301 -301 475 -468 487 -468 21 0 976 945 976 965 0 6 -25 35
-55 65 -30 30 -55 61 -55 70 0 9 25 40 55 70 30 30 55 59 55 65 0 5 -210 220
-468 478 -461 461 -468 467 -507 467 -40 0 -46 -6 -498 -458z m953 -40 c242
-239 440 -439 440 -446 0 -7 -109 -120 -242 -252 -134 -131 -333 -328 -443
-436 -110 -109 -205 -198 -210 -198 -18 0 -895 868 -895 886 0 18 883 885 897
882 7 -2 211 -198 453 -436z"></path>
<path d="M998 1977 c-209 -206 -338 -340 -338 -353 -1 -20 665 -684 685 -684
17 0 685 664 685 681 0 16 -669 689 -685 689 -6 0 -162 -150 -347 -333z m516
-190 c86 -82 156 -155 156 -162 0 -17 -306 -310 -324 -310 -17 0 -326 292
-326 308 -1 16 312 317 327 314 6 -1 81 -69 167 -150z"></path>
<path d="M1281 1686 c-28 -30 -51 -58 -51 -61 0 -12 103 -115 115 -115 12 0
115 103 115 115 0 12 -103 115 -115 115 -7 0 -35 -24 -64 -54z"></path>
<path d="M3090 2240 c-124 -21 -188 -84 -239 -235 -56 -167 -181 -871 -181
-1018 0 -163 70 -241 215 -239 134 1 215 51 269 165 48 102 70 179 106 382 5
28 16 90 25 139 8 49 13 91 10 94 -10 10 -239 14 -264 5 -20 -8 -27 -21 -37
-73 -8 -35 -11 -66 -9 -70 2 -4 26 -5 53 -2 27 2 52 0 55 -5 15 -24 -64 -362
-94 -405 -38 -52 -93 -64 -130 -27 -20 20 -21 28 -15 118 6 93 12 136 56 386
83 479 104 562 157 618 32 32 71 35 104 8 22 -18 24 -25 22 -119 l-2 -101 27
-5 c15 -3 52 -4 82 -2 l55 3 8 54 c23 149 -11 277 -83 310 -43 21 -130 29
-190 19z"></path>
<path d="M3575 2220 c-3 -5 -21 -96 -40 -202 -19 -106 -41 -233 -50 -283 -39
-219 -67 -374 -75 -425 -5 -30 -16 -93 -25 -140 -29 -155 -64 -351 -68 -384
-2 -18 5 -19 86 -19 48 0 90 2 92 5 4 4 52 260 110 588 14 74 38 212 55 305
28 158 46 256 85 463 9 45 13 87 10 92 -8 13 -172 13 -180 0z"></path>
<path d="M3936 2218 c-2 -7 -9 -44 -15 -83 -6 -38 -17 -106 -25 -150 -19 -105
-52 -292 -77 -435 -11 -63 -24 -137 -29 -165 -5 -27 -20 -113 -34 -190 -14
-77 -32 -180 -41 -230 -27 -148 -33 -190 -29 -194 2 -2 43 -4 91 -4 l87 0 7
29 c4 16 29 153 55 304 26 151 52 279 58 283 6 4 45 6 86 5 l75 -3 12 69 c7
38 11 72 8 74 -3 3 -38 7 -80 10 -84 5 -82 2 -66 92 54 305 73 409 81 427 9
21 17 22 106 25 l97 3 13 64 c7 35 11 68 8 72 -3 5 -91 9 -195 9 -143 0 -190
-3 -193 -12z"></path>
<path d="M4380 2204 c-6 -15 -13 -53 -17 -85 l-6 -59 87 0 c101 0 95 13 66
-145 -11 -60 -25 -135 -30 -165 -5 -30 -21 -120 -36 -200 -14 -80 -30 -167
-34 -195 -7 -45 -25 -143 -50 -275 -32 -177 -51 -293 -48 -302 3 -7 38 -11 93
-11 81 0 90 2 93 19 1 11 7 44 12 74 15 80 76 423 104 580 14 74 36 203 51
285 15 83 35 191 44 240 l17 90 89 5 90 5 13 50 c7 28 11 64 10 80 l-3 30
-268 3 -267 2 -10 -26z"></path>
<path d="M5045 2218 c-2 -7 -20 -107 -40 -223 -20 -115 -47 -268 -60 -340 -13
-71 -35 -197 -50 -280 -33 -188 -36 -206 -70 -390 -16 -82 -29 -165 -29 -184
l-1 -33 90 -1 c88 -1 90 -1 93 23 2 14 21 124 43 245 22 121 47 258 55 305 8
47 24 135 35 195 23 125 34 187 54 300 16 93 31 176 47 260 6 33 12 76 12 95
l1 35 -88 3 c-64 2 -88 -1 -92 -10z"></path>
<path d="M5424 2222 c-12 -7 -23 -55 -49 -207 -30 -170 -80 -454 -110 -620 -9
-49 -20 -112 -25 -140 -4 -27 -20 -117 -35 -200 -30 -166 -43 -241 -47 -269
-3 -17 5 -18 91 -18 l95 -1 18 109 c57 342 80 472 89 492 9 22 14 24 87 20
l77 -3 12 45 c6 25 12 57 12 72 1 26 0 27 -79 34 l-80 7 5 31 c3 17 10 58 15
91 24 144 31 186 53 295 l22 115 98 3 c111 3 113 5 119 99 l3 48 -180 2 c-99
2 -185 0 -191 -5z"></path>
<path d="M5863 2215 c-3 -9 -3 -49 1 -88 3 -40 13 -160 21 -267 8 -107 19
-255 25 -329 7 -95 7 -150 0 -190 -6 -31 -22 -119 -35 -196 -13 -77 -33 -191
-45 -254 -11 -62 -18 -116 -16 -119 3 -2 45 -5 93 -5 l88 0 11 54 c6 30 23
124 38 209 69 389 60 359 163 595 52 121 108 248 124 283 16 35 29 65 29 67 0
3 11 28 24 57 57 126 77 181 68 190 -5 5 -46 8 -91 6 l-83 -3 -53 -140 c-29
-77 -74 -196 -100 -265 -49 -130 -61 -153 -69 -129 -3 8 -6 131 -8 274 l-3
260 -88 3 c-73 2 -88 0 -94 -13z"></path>
</g>
</svg>