 <svg version="1.0" xmlns="http://www.w3.org/2000/svg" width="700.000000pt" height="700.000000pt" viewBox="0 0 700.000000 700.000000" preserveAspectRatio="xMidYMid meet">
<metadata>
Created by potrace 1.12, written by Peter Selinger 2001-2015
</metadata>
<g transform="translate(0.000000,700.000000) scale(0.100000,-0.100000)" fill="#000000" stroke="none">
<path d="M3315 6994 c-227 -33 -396 -79 -575 -158 -375 -165 -701 -479 -892
-860 -396 -788 -173 -1744 532 -2287 223 -172 483 -289 780 -350 101 -21 142
-24 340 -24 254 1 350 14 561 81 917 290 1460 1253 1234 2190 -148 613 -612
1119 -1210 1319 -191 64 -323 86 -545 90 -107 2 -208 1 -225 -1z"></path>
<path d="M2895 2894 c-359 -35 -656 -115 -950 -259 -277 -136 -468 -270 -694
-490 -513 -499 -786 -1104 -827 -1833 -8 -139 6 -199 59 -250 70 -67 -197 -62
3019 -62 2814 0 2914 1 2953 19 82 38 125 114 125 223 0 87 -27 338 -51 463
-102 552 -363 1034 -775 1435 -228 222 -427 363 -699 495 -250 121 -462 188
-755 237 -117 20 -167 21 -745 23 -341 1 -638 1 -660 -1z"></path>
</g>
</svg>